<?xml version="1.0" encoding="UTF-8"?>
<svg version="1.1" xmlns="http://www.w3.org/2000/svg" width="64" height="64">
<path d="M0 0 C3.63 0 7.26 0 11 0 C11 21.12 11 42.24 11 64 C6.05 64 1.1 64 -4 64 C-4 53.44 -4 42.88 -4 32 C-2.68 32 -1.36 32 0 32 C0 21.44 0 10.88 0 0 Z " fill="#FFFFFF" transform="translate(53,0)"/>
<path d="M0 0 C2.31 0 4.62 0 7 0 C7 10.56 7 21.12 7 32 C8.32 32 9.64 32 11 32 C11 42.56 11 53.12 11 64 C6.05 64 1.1 64 -4 64 C-4 53.44 -4 42.88 -4 32 C-2.68 32 -1.36 32 0 32 C0 21.44 0 10.88 0 0 Z " fill="#FFFFFF" transform="translate(36,0)"/>
<path d="M0 0 C2.31 0 4.62 0 7 0 C7 10.56 7 21.12 7 32 C8.32 32 9.64 32 11 32 C11 42.56 11 53.12 11 64 C6.05 64 1.1 64 -4 64 C-4 53.44 -4 42.88 -4 32 C-2.68 32 -1.36 32 0 32 C0 21.44 0 10.88 0 0 Z " fill="#FFFFFF" transform="translate(19,0)"/>
<path d="M0 0 C2.97 0 5.94 0 9 0 C9 10.56 9 21.12 9 32 C10.32 32 11.64 32 13 32 C13 42.56 13 53.12 13 64 C8.71 64 4.42 64 0 64 C0 42.88 0 21.76 0 0 Z " fill="#FFFFFF" transform="translate(0,0)"/>
</svg>
